<svg width="9" height="6" viewBox="0 0 9 6" fill="none" xmlns="http://www.w3.org/2000/svg">
<path d="M0.241699 3.57275L3.41016 0.333984C3.62988 0.111328 3.87305 0 4.13965 0C4.27734 0.00292969 4.40332 0.0307617 4.51758 0.0834961C4.63477 0.13623 4.75049 0.219727 4.86475 0.333984L8.02881 3.57275C8.19287 3.73389 8.2749 3.93164 8.2749 4.16602C8.2749 4.32715 8.23535 4.47363 8.15625 4.60547C8.08008 4.73438 7.97607 4.83838 7.84424 4.91748C7.71533 4.99658 7.57178 5.03613 7.41357 5.03613C7.17041 5.03613 6.95947 4.94092 6.78076 4.75049L3.99463 1.86328H4.29346L1.49854 4.75049C1.31396 4.94092 1.1001 5.03613 0.856934 5.03613C0.70166 5.03613 0.558105 4.99658 0.42627 4.91748C0.297363 4.83838 0.193359 4.73438 0.114258 4.60547C0.0380859 4.47363 0 4.32715 0 4.16602C0 4.04883 0.019043 3.94189 0.0571289 3.84521C0.0981445 3.74854 0.159668 3.65771 0.241699 3.57275Z" fill="black" fill-opacity="0.85"/>
</svg>
