<svg width="9" height="6" viewBox="0 0 9 6" fill="none" xmlns="http://www.w3.org/2000/svg">
<path d="M0.241699 1.46338L3.41016 4.70215C3.62988 4.9248 3.87305 5.03613 4.13965 5.03613C4.27734 5.0332 4.40332 5.00537 4.51758 4.95264C4.63477 4.8999 4.75049 4.81641 4.86475 4.70215L8.02881 1.46338C8.19287 1.30225 8.2749 1.10449 8.2749 0.870117C8.2749 0.708984 8.23535 0.5625 8.15625 0.430664C8.08008 0.301758 7.97607 0.197754 7.84424 0.118652C7.71533 0.0395508 7.57178 0 7.41357 0C7.17041 0 6.95947 0.0952148 6.78076 0.285645L3.99463 3.17285H4.29346L1.49854 0.285645C1.31396 0.0952148 1.1001 0 0.856934 0C0.70166 0 0.558105 0.0395508 0.42627 0.118652C0.297363 0.197754 0.193359 0.301758 0.114258 0.430664C0.0380859 0.5625 0 0.708984 0 0.870117C0 0.987305 0.019043 1.09424 0.0571289 1.19092C0.0981445 1.2876 0.159668 1.37842 0.241699 1.46338Z" fill="black" fill-opacity="0.85"/>
</svg>
