<svg width="11" height="13" viewBox="0 0 11 13" fill="none" xmlns="http://www.w3.org/2000/svg">
<path d="M0 11.2354V1.06934C0 0.703125 0.090332 0.43457 0.270996 0.263672C0.45166 0.0878906 0.666504 0 0.915527 0C1.13525 0 1.35986 0.0634766 1.58936 0.19043L10.1221 5.17822C10.4248 5.354 10.6348 5.5127 10.752 5.6543C10.874 5.79102 10.9351 5.95703 10.9351 6.15234C10.9351 6.34277 10.874 6.50879 10.752 6.65039C10.6348 6.79199 10.4248 6.95068 10.1221 7.12646L1.58936 12.1143C1.35986 12.2412 1.13525 12.3047 0.915527 12.3047C0.666504 12.3047 0.45166 12.2168 0.270996 12.041C0.090332 11.8652 0 11.5967 0 11.2354Z" fill="white"/>
</svg>
