<svg width="100" height="100" viewBox="25 20 80 80" fill="none" xmlns="http://www.w3.org/2000/svg">
  <path d="M85.0051 59.0295C84.6361 58.2764 84.9524 57.3728 85.7054 57.0038C86.4584 56.6349 87.362 56.9511 87.731 57.7041C88.1 58.4572 87.7837 59.3608 87.0307 59.7298C86.2777 60.0987 85.3741 59.7825 85.0051 59.0295ZM92.332 74.0898C91.963 73.3368 92.2792 72.4332 93.0323 72.0642C93.7853 71.6952 94.6889 72.0115 95.0579 72.7645C95.4269 73.5175 95.1106 74.4211 94.3576 74.7901C93.6046 75.1591 92.7009 74.8428 92.332 74.0898ZM92.972 54.549C88.1527 51.1077 81.865 50.2192 76.0442 52.4707L91.9554 85.1893C97.3169 82.004 100.495 76.4995 100.766 70.5883L106.805 71.0175C107.151 71.0401 107.453 70.7841 107.475 70.4301C107.498 70.0837 107.242 69.7825 106.888 69.76L100.773 69.3232C100.713 66.7479 100.096 64.1199 98.8681 61.5897C97.6407 59.0671 95.954 56.9587 93.966 55.3171L97.3998 50.2342C97.5955 49.9481 97.5202 49.5565 97.2341 49.3607C96.948 49.1649 96.5564 49.2402 96.3606 49.5264L92.972 54.5415"
        fill="#9E9E9E"/>

  <path d="M78.3033 66.8683C73.8153 69.037 68.9884 70.1364 63.9583 70.1364C52.6254 70.1364 42.3316 64.3834 36.3301 55.2267C35.8557 54.5038 34.8768 54.3306 34.1765 54.8426L28.4008 59.0972C27.7457 59.5791 27.5951 60.4978 28.0544 61.1755C35.9385 72.9452 49.2895 80.3172 63.9583 80.3172C70.5321 80.3172 76.8499 78.8789 82.731 76.0401L78.3033 66.8683Z"
        fill="#B0B0B0"/>

  <path d="M63.9057 30.6708H67.0307V23.7656C67.0307 22.0412 65.6301 20.6406 63.9057 20.6406C62.1813 20.6406 60.7806 22.0412 60.7806 23.7656V30.6708H63.9057Z"
        fill="#B0B0B0"/>

  <path d="M55.7729 44.1499L34.2893 88.367C33.8225 89.3234 33.574 90.3625 33.5514 91.4243L33.4234 97.215C33.3932 98.7135 35.1252 99.5569 36.2848 98.6081L40.7577 94.9334C41.5785 94.2632 42.2412 93.4198 42.7081 92.4635L63.8829 48.8713L55.7804 44.1574L55.7729 44.1499Z"
        fill="#B0B0B0"/>

  <path d="M94.2671 91.4167C94.2445 90.355 93.9885 89.3158 93.5292 88.3595L72.0456 44.1423L63.9431 48.8713L85.118 92.4484C85.5848 93.4047 86.2475 94.2406 87.0683 94.9183L91.5412 98.593C92.7008 99.5418 94.4403 98.6984 94.4027 97.1999L94.2747 91.4092L94.2671 91.4167Z"
        fill="#B0B0B0"/>

  <path d="M63.9053 30.1211C58.7321 30.1211 54.5303 34.3305 54.5303 39.4962C54.5303 44.6619 58.7396 48.8713 63.9053 48.8713C69.071 48.8713 73.2804 44.6619 73.2804 39.4962C73.2804 34.3305 69.071 30.1211 63.9053 30.1211ZM63.9053 44.6544C61.0665 44.6544 58.7472 42.3426 58.7472 39.4962C58.7472 36.6498 61.0589 34.338 63.9053 34.338C66.7517 34.338 69.0635 36.6498 69.0635 39.4962C69.0635 42.3426 66.7517 44.6544 63.9053 44.6544Z"
        fill="#424242"/>
</svg>
